<?xml version="1.0" encoding="UTF-8"?>
<svg id="Camada_1" data-name="Camada 1" xmlns="http://www.w3.org/2000/svg" viewBox="0 0 60.89 60.89">
  <defs>
    <style>
      .cls-1 {
        fill: #0077b5;
        stroke-width: 0px;
      }
    </style>
  </defs>
  <path class="cls-1" d="M30.45,0C13.63,0,0,13.63,0,30.45s13.63,30.45,30.45,30.45,30.45-13.63,30.45-30.45S47.26,0,30.45,0ZM19.9,49.36h-7.05v-27.41h7.05v27.41ZM16.43,16.49c-1.99,0-3.58-1.49-3.58-3.38s1.59-3.38,3.58-3.38,3.58,1.49,3.58,3.38c-.1,1.89-1.69,3.38-3.58,3.38ZM52.58,49.36h-7.05v-13.7c0-2.88-.1-4.77-.4-5.66-.3-.89-.79-1.49-1.39-1.99-.7-.5-1.49-.7-2.38-.7-1.19,0-2.28.3-3.18.99-.99.7-1.59,1.59-1.99,2.68-.4,1.09-.5,3.18-.5,6.16v12.21h-8.54v-27.41h7.05v4.07c2.38-3.08,5.46-4.67,9.14-4.67,1.59,0,3.08.3,4.47.89,1.29.6,2.38,1.29,3.08,2.18.7.89,1.19,1.89,1.39,3.08.3,1.09.4,2.78.4,4.87v16.98h-.1Z"/>
</svg>